<svg xmlns="http://www.w3.org/2000/svg" xmlns:xlink="http://www.w3.org/1999/xlink" width="218.947" height="218.947" viewBox="0 0 218.947 218.947">
  <defs>
    <linearGradient id="linear-gradient" x1="0.5" x2="0.5" y2="1" gradientUnits="objectBoundingBox">
      <stop offset="0" stop-color="#fff"/>
      <stop offset="0.405" stop-color="#eee"/>
      <stop offset="0.726" stop-color="#e8e8e8"/>
      <stop offset="1" stop-color="#d2d2d2"/>
    </linearGradient>
  </defs>
  <g id="Group_27" data-name="Group 27" transform="translate(-284.457 -69.01)">
    <path id="Union_5" data-name="Union 5" d="M10.793-285.762l-29.4-29.4a110.356,110.356,0,0,0,34.291-14.627l.112.184H30.608l41.8-70.207.183,77.475L36.018-285.762a17.789,17.789,0,0,1-12.614,5.2A17.781,17.781,0,0,1,10.793-285.762Zm-36.6-36.6v-75.632l41.486,68.2h0a110.329,110.329,0,0,1-34.291,14.627ZM103.133-427.189l24.543,24.542a17.893,17.893,0,0,1,0,25.225l-24.332,24.331Zm-184,49.767a17.784,17.784,0,0,1-5.2-12.614,17.78,17.78,0,0,1,5.2-12.612l24.222-24.223V-353.2Zm52.379-77.6L10.793-494.3a17.891,17.891,0,0,1,25.225,0l15.527,15.527,0,0,23.631,23.631-9.711,16.372v0l-41.759,70.4Z" transform="translate(370.527 568.517)" fill="url(#linear-gradient)"/>
  </g>
</svg>
